<svg id="Layer_1" data-name="Layer 1" xmlns="http://www.w3.org/2000/svg" viewBox="0 0 300 300"><defs><style>.cls-1{fill:#0b3150;}</style></defs><title>PAR</title><path class="cls-1" d="M177.52,205.17H150.59v-15.8H113.34l-11,15.82H74l27.77-40a47.1,47.1,0,0,1-19,5.09c-6.55.31-13.14.07-19.81.07v34.8H36V94.84h1c13.55,0,27.11-.09,40.66.06,7.42.09,14.81.89,21.65,4,10.12,4.64,15.9,12.85,18.53,23.44a44.64,44.64,0,0,1,.55,17.5,2,2,0,0,0,.09,1.19L150.54,94.9h27ZM62.94,146c5.86-.17,11.65,0,17.35-.61,8-.9,11.56-5,11.68-12.59.07-4.69-1.34-8.7-5.83-10.94a18.54,18.54,0,0,0-4.59-1.55c-6.1-1.2-12.27-.58-18.41-.64-.06,0-.11.08-.2.15Zm87.57-10L129,166.77h21.48Z"/><path class="cls-1" d="M180.91,94.87l.73,0c13.87,0,27.74-.1,41.6.07A48.71,48.71,0,0,1,243.18,99c9.63,4.42,15.56,12.16,18.44,22.2,3.1,10.82,2.22,21.34-3.48,31.17-4.71,8.11-11.88,13-21,15l-1.19.27L264,205.13H233.56L207.9,169.27v35.87h-27Zm27,24.45v31.26c5.51-.27,10.94-.34,16.33-.9a12.9,12.9,0,0,0,7.84-3.93c4.27-4.37,5-9.72,3.65-15.37a12.74,12.74,0,0,0-11-9.95C219.28,119.55,213.63,119.65,207.93,119.32Z"/></svg>